<svg xmlns="http://www.w3.org/2000/svg" width="256" height="256" viewBox="0 0 100 100">
  <rect width="100" height="100" rx="20" fill="#f2b626"></rect>
  <path fill="#fff"
        d="M34.01 28.97L45.77 28.97L45.77 56.99Q45.77 64.13 41.90 67.91Q38.03 71.69 31.25 71.69L31.25 71.69Q24.05 71.69 19.76 67.67Q15.47 63.65 15.47 56.09L15.47 56.09L27.11 56.09Q27.17 61.07 30.77 61.07L30.77 61.07Q34.01 61.07 34.01 56.99L34.01 56.99L34.01 28.97ZM68.75 71.69Q61.37 71.69 56.63 68.18Q51.89 64.67 51.53 58.13L51.53 58.13L64.07 58.13Q64.25 60.35 65.39 61.37Q66.53 62.39 68.33 62.39L68.33 62.39Q69.95 62.39 71 61.58Q72.05 60.77 72.05 59.33L72.05 59.33Q72.05 57.47 70.31 56.45Q68.57 55.43 64.67 54.17L64.67 54.17Q60.53 52.79 57.98 51.50Q55.43 50.21 53.54 47.72Q51.65 45.23 51.65 41.21L51.65 41.21Q51.65 37.13 53.69 34.22Q55.73 31.31 59.33 29.81Q62.93 28.31 67.49 28.31L67.49 28.31Q74.87 28.31 79.28 31.76Q83.69 35.21 83.99 41.45L83.99 41.45L71.21 41.45Q71.15 39.53 70.04 38.57Q68.93 37.61 67.19 37.61L67.19 37.61Q65.87 37.61 65.03 38.39Q64.19 39.17 64.19 40.61L64.19 40.61Q64.19 41.81 65.12 42.68Q66.05 43.55 67.43 44.18Q68.81 44.81 71.51 45.77L71.51 45.77Q75.53 47.15 78.14 48.50Q80.75 49.85 82.64 52.28Q84.53 54.71 84.53 58.43L84.53 58.43Q84.53 62.21 82.64 65.21Q80.75 68.21 77.18 69.95Q73.61 71.69 68.75 71.69L68.75 71.69Z"></path>
</svg>
